<svg width="64" height="64" viewBox="0 0 64 64" fill="none" xmlns="http://www.w3.org/2000/svg">
  <path d="M64 2.81668H45.0088C41.0351 1.0127 36.6341 0 32 0C27.3659 0 22.9649 1.0127 18.9913 2.81668H0L7.42508 11.7432C2.93058 17.2645 0.228571 24.32 0.228571 32.0003C0.228571 49.6452 14.4807 64 32 64C49.5193 64 63.7725 49.6452 63.7725 32.0003C63.7725 24.3198 61.0701 17.2642 56.5752 11.7429L64 2.81668ZM34.6477 58.533V38.1042L39.1387 32.7052C40.3789 33.1839 41.7191 33.4576 43.1245 33.4576C49.2918 33.4576 54.309 28.4044 54.309 22.1934C54.309 20.0741 53.7142 18.0969 52.6997 16.402L53.1027 15.9175C56.4726 20.3918 58.4771 25.9639 58.4771 32.0003C58.4771 45.8041 48.0087 57.1906 34.6477 58.533ZM20.1775 8.15006H52.6562L51.1747 9.93113L49.4668 11.9842L48.9555 12.599C47.255 11.5467 45.2624 10.9287 43.1245 10.9287C37.3487 10.9287 32.5824 15.3609 32.0005 21.0258C31.4186 15.3609 26.6524 10.9287 20.8765 10.9287C18.7383 10.9287 16.7455 11.5469 15.0449 12.5994L14.5335 11.9847L12.8255 9.93131L11.3437 8.15005L20.1775 8.15006ZM32.0005 23.3609C32.2475 25.7649 33.2563 27.939 34.7681 29.6544L32 32.982L29.2324 29.655C30.7446 27.9395 31.7535 25.7651 32.0005 23.3609ZM49.0136 22.1934C49.0136 25.4637 46.3721 28.1242 43.1245 28.1242C43.0677 28.1242 43.0127 28.1172 42.9563 28.1156C41.9419 28.0866 40.9926 27.7991 40.1684 27.3147C39.3972 26.8615 38.7342 26.2416 38.2368 25.4978C39.9081 25.3266 41.2171 23.9215 41.2171 22.1932C41.2171 22.104 41.1979 22.0203 41.1911 21.9329C41.0659 20.3261 39.8221 19.0509 38.2371 18.8885C39.2957 17.3057 41.0911 16.2621 43.1245 16.2621C43.9659 16.2621 44.765 16.4438 45.4897 16.7654C46.3138 17.1311 47.0387 17.6808 47.614 18.3637C48.2375 19.1041 48.6858 19.9981 48.8894 20.9827C48.9703 21.3738 49.0136 21.7786 49.0136 22.1934ZM23.8322 27.315C23.0078 27.7994 22.0584 28.0868 21.0438 28.1157C20.9877 28.1173 20.933 28.1242 20.8765 28.1242C18.8429 28.1242 17.0474 27.0807 15.9889 25.4978C16.7913 25.4156 17.5099 25.0581 18.0394 24.5038C18.6126 23.9036 18.9692 23.0917 18.9692 22.1932C18.9692 21.8853 18.9144 21.5929 18.837 21.3098C18.5794 20.3685 17.9307 19.5973 17.0698 19.1853C16.7363 19.0257 16.3727 18.9278 15.9891 18.8885C16.1114 18.7056 16.2456 18.5319 16.3867 18.3641C16.9619 17.6812 17.6867 17.1315 18.5107 16.7658C19.2355 16.444 20.0348 16.2621 20.8765 16.2621C24.1241 16.2621 26.7656 18.9231 26.7656 22.1934C26.7656 23.413 26.3975 24.5472 25.7685 25.4908C25.2705 26.2377 24.6059 26.8604 23.8322 27.315ZM11.3009 16.4027C10.2867 18.0974 9.69205 20.0744 9.69205 22.1934C9.69205 28.4044 14.7092 33.4576 20.8765 33.4576C22.2816 33.4576 23.6216 33.184 24.8616 32.7055L29.3523 38.1042V58.5329C15.9922 57.1904 5.52399 45.804 5.52399 32.0003C5.52399 25.9641 7.52826 20.3923 10.8978 15.9181L11.3009 16.4027Z" fill="#262729" />
</svg>
