<svg width="185" height="32" viewBox="0 0 185 32" fill="none" xmlns="http://www.w3.org/2000/svg">
  <path d="M32 1.40834H22.5044C20.5176 0.506351 18.317 0 16 0C13.683 0 11.4825 0.506351 9.49567 1.40834H0L3.71254 5.8716C1.46529 8.63223 0.114286 12.16 0.114286 16.0001C0.114286 24.8226 7.24033 32 16 32C24.7597 32 31.8862 24.8226 31.8862 16.0001C31.8862 12.1599 30.535 8.6321 28.2876 5.87143L32 1.40834ZM17.3239 29.2665V19.0521L19.5693 16.3526C20.1894 16.592 20.8595 16.7288 21.5623 16.7288C24.6459 16.7288 27.1545 14.2022 27.1545 11.0967C27.1545 10.0371 26.8571 9.04845 26.3498 8.20098L26.5514 7.95873C28.2363 10.1959 29.2385 12.9819 29.2385 16.0001C29.2385 22.902 24.0043 28.5953 17.3239 29.2665ZM10.0888 4.07503H26.3281L25.5873 4.96557L24.7334 5.9921L24.4777 6.29949C23.6275 5.77335 22.6312 5.46436 21.5622 5.46436C18.6743 5.46436 16.2912 7.68046 16.0003 10.5129C15.7093 7.68046 13.3262 5.46436 10.4383 5.46436C9.36913 5.46436 8.37275 5.77344 7.52245 6.29972L7.26676 5.99233L6.41276 4.96566L5.67187 4.07503L10.0888 4.07503ZM16.0003 11.6804C16.1238 12.8824 16.6282 13.9695 17.384 14.8272L16 16.491L14.6162 14.8275C15.3723 13.9697 15.8768 12.8826 16.0003 11.6804ZM24.5068 11.0967C24.5068 12.7319 23.186 14.0621 21.5622 14.0621C21.5339 14.0621 21.5064 14.0586 21.4781 14.0578C20.9709 14.0433 20.4963 13.8996 20.0842 13.6574C19.6986 13.4307 19.3671 13.1208 19.1184 12.7489C19.954 12.6633 20.6086 11.9608 20.6086 11.0966C20.6086 11.052 20.5989 11.0101 20.5955 10.9665C20.5329 10.163 19.9111 9.52547 19.1186 9.44425C19.6478 8.65283 20.5455 8.13105 21.5622 8.13105C21.983 8.13105 22.3825 8.22191 22.7448 8.38268C23.1569 8.56556 23.5194 8.8404 23.807 9.18187C24.1188 9.55206 24.3429 9.99907 24.4447 10.4914C24.4851 10.6869 24.5068 10.8893 24.5068 11.0967ZM11.9161 13.6575C11.5039 13.8997 11.0292 14.0434 10.5219 14.0578C10.4939 14.0586 10.4665 14.0621 10.4383 14.0621C9.42146 14.0621 8.52369 13.5403 7.99444 12.7489C8.39567 12.7078 8.75494 12.529 9.01968 12.2519C9.3063 11.9518 9.48462 11.5458 9.48462 11.0966C9.48462 10.9426 9.45721 10.7964 9.41849 10.6549C9.28969 10.1842 8.96535 9.79865 8.5349 9.59266C8.36813 9.51284 8.18633 9.46392 7.99457 9.44425C8.05572 9.35281 8.12278 9.26593 8.19337 9.18207C8.48093 8.8406 8.84337 8.56576 9.25533 8.38288C9.61774 8.22198 10.0174 8.13106 10.4383 8.13106C12.0621 8.13106 13.3828 9.46154 13.3828 11.0967C13.3828 11.7065 13.1988 12.2736 12.8842 12.7454C12.6352 13.1189 12.3029 13.4302 11.9161 13.6575ZM5.65045 8.20134C5.14334 9.04871 4.84603 10.0372 4.84603 11.0967C4.84603 14.2022 7.35462 16.7288 10.4383 16.7288C11.1408 16.7288 11.8108 16.592 12.4308 16.3527L14.6762 19.0521V29.2664C7.99612 28.5952 2.762 22.902 2.762 16.0001C2.762 12.9821 3.76413 10.1962 5.44891 7.95905L5.65045 8.20134Z" fill="#262729" />
  <path d="M40 26.05V12.925H43.7V15.15H43.85C44.0833 14.45 44.4833 13.8584 45.05 13.375C45.6167 12.875 46.3917 12.625 47.375 12.625C48.275 12.625 49.0417 12.85 49.675 13.3C50.3083 13.75 50.7667 14.4084 51.05 15.275H51.125C51.2417 14.9084 51.4167 14.5667 51.65 14.25C51.9 13.9167 52.2 13.6334 52.55 13.4C52.9 13.1667 53.2917 12.9834 53.725 12.85C54.1583 12.7 54.625 12.625 55.125 12.625C56.3917 12.625 57.3583 13.075 58.025 13.975C58.7083 14.875 59.05 16.1584 59.05 17.825V26.05H55.35V18.125C55.35 16.4584 54.75 15.625 53.55 15.625C53 15.625 52.5 15.7834 52.05 16.1C51.6 16.4167 51.375 16.9 51.375 17.55V26.05H47.675V18.125C47.675 16.4584 47.075 15.625 45.875 15.625C45.6083 15.625 45.3417 15.6667 45.075 15.75C44.825 15.8167 44.5917 15.9334 44.375 16.1C44.175 16.2667 44.0083 16.475 43.875 16.725C43.7583 16.9584 43.7 17.2334 43.7 17.55V26.05H40Z" fill="#0D97FB" />
  <path d="M60.8389 26.05V12.925H64.5389V26.05H60.8389ZM63.1139 11.575L60.9139 10.5L63.3889 5.65002L66.4639 7.17502L63.1139 11.575Z" fill="#0D97FB" />
  <path d="M70.9422 26.35C69.6755 26.35 68.6089 26.15 67.7422 25.75C66.8755 25.3334 66.1005 24.75 65.4172 24L67.5922 21.8C68.0589 22.3167 68.5755 22.725 69.1422 23.025C69.7089 23.325 70.3505 23.475 71.0672 23.475C71.8005 23.475 72.3089 23.3667 72.5922 23.15C72.8755 22.9167 73.0172 22.6084 73.0172 22.225C73.0172 21.6084 72.5755 21.2417 71.6922 21.125L70.2672 20.95C67.3172 20.5834 65.8422 19.2334 65.8422 16.9C65.8422 16.2667 65.9589 15.6917 66.1922 15.175C66.4422 14.6417 66.7839 14.1917 67.2172 13.825C67.6672 13.4417 68.2005 13.15 68.8172 12.95C69.4505 12.7334 70.1589 12.625 70.9422 12.625C71.6255 12.625 72.2255 12.675 72.7422 12.775C73.2755 12.8584 73.7422 12.9917 74.1422 13.175C74.5589 13.3417 74.9339 13.5584 75.2672 13.825C75.6172 14.075 75.9589 14.3584 76.2922 14.675L74.1672 16.85C73.7505 16.4334 73.2755 16.1084 72.7422 15.875C72.2255 15.625 71.6922 15.5 71.1422 15.5C70.5089 15.5 70.0589 15.6 69.7922 15.8C69.5255 16 69.3922 16.2667 69.3922 16.6C69.3922 16.95 69.4839 17.225 69.6672 17.425C69.8672 17.6084 70.2339 17.7417 70.7672 17.825L72.2422 18.025C75.1255 18.4084 76.5672 19.725 76.5672 21.975C76.5672 22.6084 76.4339 23.1917 76.1672 23.725C75.9005 24.2584 75.5172 24.725 75.0172 25.125C74.5339 25.5084 73.9422 25.8084 73.2422 26.025C72.5589 26.2417 71.7922 26.35 70.9422 26.35Z" fill="#0D97FB" />
  <path d="M81.9945 26.05C80.7112 26.05 79.7362 25.725 79.0695 25.075C78.4195 24.425 78.0945 23.475 78.0945 22.225V15.8H76.2445V12.925H77.1695C77.6695 12.925 78.0112 12.8084 78.1945 12.575C78.3779 12.325 78.4695 11.975 78.4695 11.525V9.37502H81.7945V12.925H84.3945V15.8H81.7945V23.175H84.1945V26.05H81.9945Z" fill="#0D97FB" />
  <path d="M90.6922 26.35C89.7255 26.35 88.8589 26.1917 88.0922 25.875C87.3422 25.5584 86.7005 25.1 86.1672 24.5C85.6505 23.9 85.2505 23.175 84.9672 22.325C84.6839 21.475 84.5422 20.525 84.5422 19.475C84.5422 18.425 84.6839 17.475 84.9672 16.625C85.2505 15.775 85.6505 15.0584 86.1672 14.475C86.7005 13.875 87.3422 13.4167 88.0922 13.1C88.8589 12.7834 89.7255 12.625 90.6922 12.625C91.6589 12.625 92.5172 12.7834 93.2672 13.1C94.0339 13.4167 94.6755 13.875 95.1922 14.475C95.7255 15.0584 96.1339 15.775 96.4172 16.625C96.7005 17.475 96.8422 18.425 96.8422 19.475C96.8422 20.525 96.7005 21.475 96.4172 22.325C96.1339 23.175 95.7255 23.9 95.1922 24.5C94.6755 25.1 94.0339 25.5584 93.2672 25.875C92.5172 26.1917 91.6589 26.35 90.6922 26.35ZM90.6922 23.425C91.4255 23.425 91.9922 23.2 92.3922 22.75C92.7922 22.3 92.9922 21.6584 92.9922 20.825V18.15C92.9922 17.3167 92.7922 16.675 92.3922 16.225C91.9922 15.775 91.4255 15.55 90.6922 15.55C89.9589 15.55 89.3922 15.775 88.9922 16.225C88.5922 16.675 88.3922 17.3167 88.3922 18.15V20.825C88.3922 21.6584 88.5922 22.3 88.9922 22.75C89.3922 23.2 89.9589 23.425 90.6922 23.425Z" fill="#0D97FB" />
  <path d="M105.187 26.05L100.887 12.925H104.537L106.162 18.225L107.387 22.975H107.587L108.812 18.225L110.387 12.925H113.887L109.587 26.05H105.187Z" fill="#262729" />
  <path d="M119.619 26.35C118.619 26.35 117.727 26.1917 116.944 25.875C116.16 25.5417 115.494 25.0834 114.944 24.5C114.41 23.9 114.002 23.175 113.719 22.325C113.452 21.475 113.319 20.525 113.319 19.475C113.319 18.4417 113.452 17.5084 113.719 16.675C113.985 15.825 114.377 15.1 114.894 14.5C115.427 13.9 116.077 13.4417 116.844 13.125C117.61 12.7917 118.485 12.625 119.469 12.625C120.552 12.625 121.477 12.8084 122.244 13.175C123.027 13.5417 123.66 14.0334 124.144 14.65C124.644 15.2667 125.002 15.9834 125.219 16.8C125.452 17.6 125.569 18.4417 125.569 19.325V20.425H117.144V20.625C117.144 21.4917 117.377 22.1834 117.844 22.7C118.31 23.2 119.044 23.45 120.044 23.45C120.81 23.45 121.435 23.3 121.919 23C122.402 22.6834 122.852 22.3084 123.269 21.875L125.119 24.175C124.535 24.8584 123.769 25.3917 122.819 25.775C121.885 26.1584 120.819 26.35 119.619 26.35ZM119.544 15.35C118.794 15.35 118.202 15.6 117.769 16.1C117.352 16.5834 117.144 17.2334 117.144 18.05V18.25H121.744V18.025C121.744 17.225 121.56 16.5834 121.194 16.1C120.844 15.6 120.294 15.35 119.544 15.35Z" fill="#262729" />
  <path d="M135.54 26.35C134.273 26.35 133.207 26.15 132.34 25.75C131.473 25.3334 130.698 24.75 130.015 24L132.19 21.8C132.657 22.3167 133.173 22.725 133.74 23.025C134.307 23.325 134.948 23.475 135.665 23.475C136.398 23.475 136.907 23.3667 137.19 23.15C137.473 22.9167 137.615 22.6084 137.615 22.225C137.615 21.6084 137.173 21.2417 136.29 21.125L134.865 20.95C131.915 20.5834 130.44 19.2334 130.44 16.9C130.44 16.2667 130.557 15.6917 130.79 15.175C131.04 14.6417 131.382 14.1917 131.815 13.825C132.265 13.4417 132.798 13.15 133.415 12.95C134.048 12.7334 134.757 12.625 135.54 12.625C136.223 12.625 136.823 12.675 137.34 12.775C137.873 12.8584 138.34 12.9917 138.74 13.175C139.157 13.3417 139.532 13.5584 139.865 13.825C140.215 14.075 140.557 14.3584 140.89 14.675L138.765 16.85C138.348 16.4334 137.873 16.1084 137.34 15.875C136.823 15.625 136.29 15.5 135.74 15.5C135.107 15.5 134.657 15.6 134.39 15.8C134.123 16 133.99 16.2667 133.99 16.6C133.99 16.95 134.082 17.225 134.265 17.425C134.465 17.6084 134.832 17.7417 135.365 17.825L136.84 18.025C139.723 18.4084 141.165 19.725 141.165 21.975C141.165 22.6084 141.032 23.1917 140.765 23.725C140.498 24.2584 140.115 24.725 139.615 25.125C139.132 25.5084 138.54 25.8084 137.84 26.025C137.157 26.2417 136.39 26.35 135.54 26.35ZM134.09 11.375L130.79 7.40002L132.615 5.95003L135.64 8.82503L138.665 5.95003L140.49 7.40002L137.19 11.375H134.09Z" fill="#262729" />
  <path d="M142.188 7.55003H145.887V18.475H146.037L147.662 16.05L150.287 12.925H154.388L150.012 17.95L154.887 26.05H150.488L147.537 20.5L145.887 22.35V26.05H142.188V7.55003Z" fill="#262729" />
  <path d="M159.758 26.35C158.791 26.35 157.924 26.1917 157.158 25.875C156.408 25.5584 155.766 25.1 155.233 24.5C154.716 23.9 154.316 23.175 154.033 22.325C153.749 21.475 153.608 20.525 153.608 19.475C153.608 18.425 153.749 17.475 154.033 16.625C154.316 15.775 154.716 15.0584 155.233 14.475C155.766 13.875 156.408 13.4167 157.158 13.1C157.924 12.7834 158.791 12.625 159.758 12.625C160.724 12.625 161.583 12.7834 162.333 13.1C163.099 13.4167 163.741 13.875 164.258 14.475C164.791 15.0584 165.199 15.775 165.483 16.625C165.766 17.475 165.908 18.425 165.908 19.475C165.908 20.525 165.766 21.475 165.483 22.325C165.199 23.175 164.791 23.9 164.258 24.5C163.741 25.1 163.099 25.5584 162.333 25.875C161.583 26.1917 160.724 26.35 159.758 26.35ZM159.758 23.425C160.491 23.425 161.058 23.2 161.458 22.75C161.858 22.3 162.058 21.6584 162.058 20.825V18.15C162.058 17.3167 161.858 16.675 161.458 16.225C161.058 15.775 160.491 15.55 159.758 15.55C159.024 15.55 158.458 15.775 158.058 16.225C157.658 16.675 157.458 17.3167 157.458 18.15V20.825C157.458 21.6584 157.658 22.3 158.058 22.75C158.458 23.2 159.024 23.425 159.758 23.425Z" fill="#262729" />
  <path d="M170.719 26.05C169.452 26.05 168.519 25.7417 167.919 25.125C167.336 24.5084 167.044 23.6167 167.044 22.45V7.55003H170.744V23.175H172.394V26.05H170.719Z" fill="#262729" />
  <path d="M178.587 26.35C177.587 26.35 176.696 26.1917 175.912 25.875C175.129 25.5417 174.462 25.0834 173.912 24.5C173.379 23.9 172.971 23.175 172.687 22.325C172.421 21.475 172.287 20.525 172.287 19.475C172.287 18.4417 172.421 17.5084 172.687 16.675C172.954 15.825 173.346 15.1 173.862 14.5C174.396 13.9 175.046 13.4417 175.812 13.125C176.579 12.7917 177.454 12.625 178.437 12.625C179.521 12.625 180.446 12.8084 181.212 13.175C181.996 13.5417 182.629 14.0334 183.112 14.65C183.612 15.2667 183.971 15.9834 184.187 16.8C184.421 17.6 184.537 18.4417 184.537 19.325V20.425H176.112V20.625C176.112 21.4917 176.346 22.1834 176.812 22.7C177.279 23.2 178.012 23.45 179.012 23.45C179.779 23.45 180.404 23.3 180.887 23C181.371 22.6834 181.821 22.3084 182.237 21.875L184.087 24.175C183.504 24.8584 182.737 25.3917 181.787 25.775C180.854 26.1584 179.787 26.35 178.587 26.35ZM178.512 15.35C177.762 15.35 177.171 15.6 176.737 16.1C176.321 16.5834 176.112 17.2334 176.112 18.05V18.25H180.712V18.025C180.712 17.225 180.529 16.5834 180.162 16.1C179.812 15.6 179.262 15.35 178.512 15.35Z" fill="#262729" />
</svg>
