<svg width="24" height="24" viewBox="0 0 24 24" fill="none" xmlns="http://www.w3.org/2000/svg">
<path d="M23.8298 1.13388H16.7586C15.279 0.462183 13.6403 0.0851135 11.9149 0.0851135C10.1894 0.0851135 8.55076 0.462183 7.07125 1.13388H0L2.76466 4.45758C1.09117 6.51337 0.0851063 9.14043 0.0851063 12.0001C0.0851063 18.57 5.39174 23.9149 11.9149 23.9149C18.438 23.9149 23.7451 18.57 23.7451 12.0001C23.7451 9.14036 22.7389 6.51327 21.0652 4.45746L23.8298 1.13388ZM12.9007 21.8793V14.2729L14.5729 12.2626C15.0347 12.4408 15.5337 12.5427 16.057 12.5427C18.3533 12.5427 20.2214 10.6612 20.2214 8.34862C20.2214 7.55952 20 6.82332 19.6222 6.19223L19.7723 6.01182C21.027 7.67782 21.7734 9.75252 21.7734 12.0001C21.7734 17.1398 17.8756 21.3795 12.9007 21.8793ZM7.5129 3.11971H19.606L19.0544 3.78288L18.4185 4.54732L18.2281 4.77622C17.5949 4.38442 16.853 4.15432 16.057 4.15432C13.9064 4.15432 12.1317 5.8046 11.9151 7.91387C11.6984 5.8046 9.92375 4.15432 7.77317 4.15432C6.97701 4.15432 6.23502 4.38449 5.60183 4.77639L5.41142 4.54748L4.77546 3.78294L4.22373 3.11971L7.5129 3.11971ZM11.9151 8.78331C12.0071 9.67841 12.3827 10.4879 12.9456 11.1266L11.9149 12.3657L10.8844 11.1269C11.4475 10.4881 11.8231 9.67851 11.9151 8.78331ZM18.2497 8.34862C18.2497 9.5663 17.2662 10.5569 16.057 10.5569C16.0359 10.5569 16.0154 10.5543 15.9944 10.5537C15.6167 10.5429 15.2632 10.4358 14.9563 10.2555C14.6692 10.0867 14.4223 9.85591 14.2371 9.57897C14.8594 9.51524 15.3468 8.99207 15.3468 8.34852C15.3468 8.31533 15.3396 8.28416 15.3371 8.25163C15.2905 7.65333 14.8274 7.17855 14.2372 7.11806C14.6314 6.52871 15.2999 6.14015 16.057 6.14015C16.3703 6.14015 16.6678 6.20781 16.9376 6.32754C17.2445 6.46372 17.5144 6.66839 17.7286 6.92268C17.9608 7.19835 18.1277 7.53123 18.2035 7.89782C18.2336 8.04344 18.2497 8.19415 18.2497 8.34862ZM8.87369 10.2556C8.56674 10.436 8.21325 10.543 7.83544 10.5537C7.81457 10.5543 7.79419 10.5569 7.77318 10.5569C7.01598 10.5569 6.34743 10.1683 5.95331 9.57897C6.25209 9.54838 6.51964 9.41525 6.71678 9.20886C6.93022 8.98539 7.06301 8.68307 7.06301 8.34852C7.06301 8.23388 7.0426 8.12502 7.01377 8.01962C6.91785 7.66912 6.67633 7.38198 6.35578 7.22858C6.23159 7.16914 6.0962 7.13271 5.9534 7.11807C5.99894 7.04997 6.04888 6.98528 6.10145 6.92283C6.31558 6.66854 6.58549 6.46387 6.89227 6.32769C7.16215 6.20786 7.45976 6.14016 7.77318 6.14016C8.98238 6.14016 9.96592 7.13094 9.96592 8.34862C9.96592 8.8027 9.82887 9.22503 9.59464 9.57636C9.40921 9.85448 9.16176 10.0863 8.87369 10.2556ZM4.20778 6.19249C3.83015 6.82351 3.60874 7.55962 3.60874 8.34862C3.60874 10.6612 5.47684 12.5427 7.77318 12.5427C8.29636 12.5427 8.79528 12.4409 9.25698 12.2627L10.929 14.2729V21.8793C5.95456 21.3794 2.05681 17.1398 2.05681 12.0001C2.05681 9.75261 2.80308 7.67801 4.0577 6.01206L4.20778 6.19249Z" fill="#262729"/>
</svg>
