<?xml version="1.0" standalone="no"?>
<!DOCTYPE svg PUBLIC "-//W3C//DTD SVG 20010904//EN"
 "http://www.w3.org/TR/2001/REC-SVG-20010904/DTD/svg10.dtd">
<svg version="1.0" xmlns="http://www.w3.org/2000/svg"
 width="700.000000pt" height="700.000000pt" viewBox="0 0 700.000000 700.000000"
 preserveAspectRatio="xMidYMid meet">
<metadata>
Created by potrace 1.14, written by Peter Selinger 2001-2017
</metadata>
<g transform="translate(0.000000,700.000000) scale(0.100000,-0.100000)"
fill="#000000" stroke="none">
<path d="M3278 6995 c-1 -1 -38 -5 -81 -9 -69 -5 -210 -24 -317 -42 -173 -28
-489 -122 -690 -204 l-120 -50 -1030 3 c-566 1 -1030 -2 -1030 -7 0 -7 106
-139 150 -187 8 -9 22 -25 30 -35 15 -19 111 -134 153 -184 12 -14 41 -50 66
-80 24 -30 49 -59 55 -65 6 -5 38 -44 70 -85 33 -41 63 -77 66 -80 6 -5 184
-222 202 -246 7 -10 -94 -154 -114 -162 -5 -2 -8 -7 -8 -12 0 -4 -29 -50 -64
-101 -306 -451 -510 -1011 -572 -1574 -22 -201 -22 -594 1 -750 2 -16 6 -53 9
-81 7 -67 53 -317 68 -369 6 -22 12 -44 14 -50 52 -242 227 -665 381 -918 104
-172 255 -383 353 -492 196 -220 317 -334 530 -501 253 -198 628 -404 920
-505 111 -39 236 -80 255 -84 11 -2 47 -11 80 -19 163 -40 216 -51 365 -72 19
-3 49 -7 65 -9 140 -20 549 -27 720 -12 1118 100 2115 736 2694 1721 140 238
259 516 340 799 33 116 77 308 87 382 3 28 8 52 9 55 2 3 6 34 10 69 4 34 8
72 11 84 22 115 21 618 -1 750 -2 12 -6 47 -9 77 -3 30 -10 80 -16 110 -6 30
-13 71 -16 90 -3 19 -10 55 -16 80 -5 25 -11 54 -14 65 -2 11 -19 76 -38 145
-107 391 -296 786 -528 1103 -37 50 -81 111 -98 134 l-30 41 286 344 c157 188
293 352 302 363 125 147 213 257 209 261 -3 3 -468 5 -1034 5 l-1030 0 -92 40
c-180 77 -440 158 -636 198 -86 18 -153 28 -360 56 -43 6 -551 15 -557 10z
m2472 -891 c0 -5 -221 -274 -343 -418 -23 -27 -43 -53 -45 -57 -2 -5 -38 10
-79 32 -617 333 -1398 59 -1684 -590 -39 -88 -89 -261 -89 -307 0 -12 -4 -26
-10 -29 -6 -4 -10 7 -10 27 -1 64 -44 210 -96 324 -130 287 -390 531 -683 641
-312 117 -661 99 -963 -51 -107 -53 -108 -53 -122 -32 -7 11 -28 37 -45 56
-17 19 -34 40 -38 45 -5 6 -72 87 -151 182 -78 94 -142 174 -142 177 0 3 1013
6 2250 6 1238 0 2250 -3 2250 -6z m-4520 -902 c0 -5 -11 -29 -25 -54 -41 -74
-82 -182 -110 -290 -33 -129 -42 -355 -19 -483 73 -406 312 -728 673 -909 74
-38 225 -90 287 -101 22 -3 61 -10 89 -15 137 -22 369 0 529 50 41 13 71 18
75 12 3 -5 25 -31 47 -58 23 -27 122 -146 220 -264 98 -118 186 -224 196 -234
17 -19 18 -80 18 -1139 l0 -1119 -57 7 c-79 8 -110 13 -253 41 -81 16 -263 68
-375 109 -779 281 -1413 899 -1718 1675 -65 165 -112 327 -148 505 -37 188
-53 356 -53 560 0 116 9 272 19 345 2 19 7 58 11 85 3 28 10 73 16 100 5 28
11 61 14 75 64 342 246 762 471 1083 l55 77 19 -24 c10 -13 19 -29 19 -34z
m4637 -24 c155 -223 292 -494 373 -738 34 -102 67 -216 74 -250 2 -14 11 -54
19 -90 61 -260 79 -667 41 -960 -44 -349 -161 -720 -319 -1009 -75 -137 -98
-175 -163 -271 -290 -427 -671 -757 -1137 -985 -204 -100 -486 -198 -660 -230
-114 -20 -198 -34 -247 -40 l-58 -7 0 1118 0 1118 42 50 c24 28 50 60 60 71 9
11 89 108 179 215 89 107 172 208 185 223 l23 28 83 -25 c128 -39 247 -55 388
-51 69 2 141 6 160 10 277 50 535 193 715 396 69 78 81 94 127 170 66 109 84
147 123 261 48 143 64 255 61 418 -5 198 -48 370 -134 535 l-39 74 21 20 c11
12 23 21 26 21 4 0 29 -33 57 -72z m-3463 31 c32 -6 70 -15 85 -21 14 -6 28
-12 31 -13 3 0 23 -9 45 -20 166 -80 302 -253 346 -440 19 -82 16 -235 -6
-310 -68 -231 -241 -402 -465 -460 -86 -22 -227 -23 -310 -2 -116 30 -206 83
-299 175 -90 90 -91 93 -20 106 52 9 149 75 187 127 114 154 95 361 -44 488
-52 48 -140 91 -185 91 -27 0 -15 22 53 91 155 159 367 228 582 188z m2455 -5
c295 -71 499 -331 499 -634 0 -293 -203 -554 -488 -627 -36 -9 -101 -16 -145
-16 -193 1 -343 65 -478 207 l-68 71 55 16 c277 83 365 405 165 608 -44 44
-150 101 -189 101 -28 0 -25 13 13 57 100 116 232 196 368 222 72 14 198 12
268 -5z m-1349 -818 c0 -66 58 -252 113 -361 34 -68 100 -171 146 -229 17 -21
28 -43 24 -50 -7 -11 -152 -186 -163 -196 -3 -3 -31 -38 -64 -77 -32 -40 -62
-73 -66 -73 -4 0 -34 33 -66 73 -33 39 -61 74 -64 77 -6 6 -138 167 -159 193
-10 12 -11 21 -4 25 21 14 115 153 158 233 63 119 122 303 128 397 1 23 17 12
17 -12z"/>
</g>
</svg>
